<svg width="13" height="13" viewBox="0 0 13 13" fill="none" xmlns="http://www.w3.org/2000/svg">
<path fill-rule="evenodd" clip-rule="evenodd" d="M3.35417 0.503693C3.63031 0.503693 3.85417 0.72755 3.85417 1.00369V2.11544C5.73932 1.94756 7.63568 1.94756 9.52083 2.11545V1.00369C9.52083 0.72755 9.74469 0.503693 10.0208 0.503693C10.297 0.503693 10.5208 0.72755 10.5208 1.00369V2.21465C11.5162 2.35539 12.3025 3.14267 12.4357 4.14692L12.4934 4.58222C12.7361 6.4131 12.7151 8.26932 12.4311 10.0943C12.2904 10.9983 11.556 11.6927 10.6455 11.7825L9.85018 11.8609C7.74681 12.0683 5.62815 12.0683 3.52478 11.8609L2.72945 11.7825C1.81895 11.6927 1.08451 10.9983 0.943841 10.0943C0.659869 8.26932 0.638908 6.4131 0.881599 4.58222L0.9393 4.14692C1.07242 3.14266 1.85878 2.35537 2.85417 2.21464V1.00369C2.85417 0.72755 3.07802 0.503693 3.35417 0.503693ZM3.65094 3.1389C5.6704 2.93974 7.70456 2.93974 9.72402 3.1389L10.3277 3.19842C10.9055 3.25541 11.368 3.70272 11.4443 4.27832L11.502 4.71362C11.5222 4.86569 11.5404 5.01795 11.5568 5.17036H1.81821C1.83453 5.01795 1.85277 4.8657 1.87293 4.71362L1.93063 4.27832C2.00693 3.70272 2.46948 3.25541 3.04731 3.19842L3.65094 3.1389ZM1.73872 6.17036C1.67327 7.42908 1.73775 8.6925 1.93195 9.9405C2.00251 10.394 2.3709 10.7422 2.82759 10.7873L3.62292 10.8657C5.66102 11.0667 7.71394 11.0667 9.75204 10.8657L10.5474 10.7873C11.0041 10.7422 11.3725 10.394 11.443 9.9405C11.6372 8.6925 11.7017 7.42908 11.6362 6.17036H1.73872Z" fill="white"/>
</svg>
