<svg width="21" height="20" viewBox="0 0 21 20" fill="none" xmlns="http://www.w3.org/2000/svg">
<g clip-path="url(#clip0_1_96)">
<path d="M17.777 3.46302C16.5076 2.87812 15.1463 2.44719 13.723 2.20038C13.6971 2.19561 13.6712 2.20752 13.6579 2.23133C13.4828 2.544 13.2889 2.95192 13.1531 3.27254C11.6222 3.0424 10.0993 3.0424 8.59981 3.27254C8.46398 2.94479 8.26302 2.544 8.08716 2.23133C8.07381 2.20831 8.04792 2.19641 8.022 2.20038C6.5995 2.4464 5.23824 2.87733 3.96803 3.46302C3.95704 3.46778 3.94761 3.47572 3.94136 3.48603C1.35933 7.35967 0.652003 11.1381 0.998993 14.8697C1.00056 14.8879 1.01077 14.9054 1.0249 14.9165C2.72845 16.1728 4.37862 16.9354 5.99816 17.441C6.02408 17.4489 6.05154 17.4394 6.06803 17.4179C6.45114 16.8926 6.79264 16.3387 7.08544 15.7561C7.10272 15.722 7.08622 15.6815 7.05091 15.668C6.50923 15.4617 5.99345 15.2101 5.4973 14.9244C5.45805 14.9014 5.45491 14.845 5.49101 14.8181C5.59542 14.7395 5.69986 14.6578 5.79955 14.5752C5.81759 14.5601 5.84272 14.557 5.86393 14.5665C9.12342 16.0609 12.6522 16.0609 15.8732 14.5665C15.8944 14.5562 15.9196 14.5594 15.9384 14.5744C16.0381 14.657 16.1425 14.7395 16.2477 14.8181C16.2838 14.845 16.2815 14.9014 16.2422 14.9244C15.7461 15.2157 15.2303 15.4617 14.6878 15.6672C14.6525 15.6807 14.6368 15.722 14.6541 15.7561C14.9532 16.3378 15.2947 16.8918 15.6707 17.4172C15.6864 17.4394 15.7147 17.4489 15.7406 17.441C17.368 16.9354 19.0181 16.1728 20.7217 14.9165C20.7366 14.9054 20.746 14.8887 20.7476 14.8705C21.1629 10.5563 20.052 6.80891 17.8029 3.48682C17.7974 3.47572 17.788 3.46778 17.777 3.46302ZM7.57219 12.5975C6.59086 12.5975 5.78227 11.6928 5.78227 10.5817C5.78227 9.47068 6.57518 8.56598 7.57219 8.56598C8.57703 8.56598 9.37779 9.47862 9.36208 10.5817C9.36208 11.6928 8.56918 12.5975 7.57219 12.5975ZM14.1901 12.5975C13.2088 12.5975 12.4002 11.6928 12.4002 10.5817C12.4002 9.47068 13.1931 8.56598 14.1901 8.56598C15.195 8.56598 15.9957 9.47862 15.98 10.5817C15.98 11.6928 15.195 12.5975 14.1901 12.5975Z" fill="white"/>
</g>
<defs>
<clipPath id="clip0_1_96">
<rect width="19.9167" height="20" fill="white" transform="translate(0.916687)"/>
</clipPath>
</defs>
</svg>
