<svg width="24" height="25" viewBox="0 0 24 25" fill="none" xmlns="http://www.w3.org/2000/svg">
<path d="M10.0002 5.5H8.2002C7.08009 5.5 6.51962 5.5 6.0918 5.71799C5.71547 5.90973 5.40973 6.21547 5.21799 6.5918C5 7.01962 5 7.58009 5 8.7002V16.3002C5 17.4203 5 17.9801 5.21799 18.4079C5.40973 18.7842 5.71547 19.0905 6.0918 19.2822C6.5192 19.5 7.07899 19.5 8.19691 19.5H15.8031C16.921 19.5 17.48 19.5 17.9074 19.2822C18.2837 19.0905 18.5905 18.7839 18.7822 18.4076C19 17.9802 19 17.421 19 16.3031V14.5M20 9.5V4.5M20 4.5H15M20 4.5L13 11.5" stroke="#37DE90" stroke-width="2" stroke-linecap="round" stroke-linejoin="round"/>
</svg>
