<svg width="14" height="10" viewBox="0 0 14 10" fill="none" xmlns="http://www.w3.org/2000/svg">
<path fill-rule="evenodd" clip-rule="evenodd" d="M4.90173 5.33704C4.90173 3.95632 6.02102 2.83704 7.40173 2.83704C8.78245 2.83704 9.90173 3.95632 9.90173 5.33704C9.90173 6.71775 8.78245 7.83704 7.40173 7.83704C6.02102 7.83704 4.90173 6.71775 4.90173 5.33704ZM7.40173 3.83704C6.57331 3.83704 5.90173 4.50861 5.90173 5.33704C5.90173 6.16546 6.57331 6.83704 7.40173 6.83704C8.23016 6.83704 8.90173 6.16546 8.90173 5.33704C8.90173 4.50861 8.23016 3.83704 7.40173 3.83704Z" fill="white"/>
<path fill-rule="evenodd" clip-rule="evenodd" d="M2.28402 4.43461C2.00461 4.83723 1.90173 5.15217 1.90173 5.33704C1.90173 5.5219 2.00461 5.83685 2.28402 6.23947C2.55411 6.62867 2.95558 7.05056 3.46351 7.44039C4.48159 8.22176 5.87737 8.83704 7.40173 8.83704C8.9261 8.83704 10.3219 8.22176 11.34 7.44039C11.8479 7.05056 12.2494 6.62867 12.5195 6.23947C12.7989 5.83685 12.9017 5.5219 12.9017 5.33704C12.9017 5.15217 12.7989 4.83723 12.5195 4.43461C12.2494 4.04541 11.8479 3.62351 11.34 3.23368C10.3219 2.45232 8.9261 1.83704 7.40173 1.83704C5.87737 1.83704 4.48159 2.45232 3.46351 3.23368C2.95558 3.62351 2.55411 4.04541 2.28402 4.43461ZM2.85467 2.44039C4.00817 1.55509 5.61239 0.837036 7.40173 0.837036C9.19108 0.837036 10.7953 1.55509 11.9488 2.44039C12.5267 2.88389 13.0039 3.37867 13.341 3.86447C13.6688 4.33685 13.9017 4.85524 13.9017 5.33704C13.9017 5.81884 13.6688 6.33723 13.341 6.80961C13.0039 7.29541 12.5267 7.79018 11.9488 8.23368C10.7953 9.11898 9.19108 9.83704 7.40173 9.83704C5.61239 9.83704 4.00817 9.11898 2.85467 8.23368C2.27682 7.79018 1.79961 7.29541 1.46247 6.80961C1.13465 6.33723 0.901733 5.81884 0.901733 5.33704C0.901733 4.85524 1.13465 4.33685 1.46247 3.86447C1.79961 3.37867 2.27682 2.88389 2.85467 2.44039Z" fill="white"/>
</svg>
