<svg width="20" height="20" viewBox="0 0 20 20" fill="none" xmlns="http://www.w3.org/2000/svg">
<g clip-path="url(#clip0_1_95)">
<path d="M9.95833 1.80078C12.6191 1.80078 12.9342 1.8125 13.9806 1.85937C14.9531 1.90234 15.4782 2.06641 15.8283 2.20313C16.2912 2.38281 16.6257 2.60156 16.972 2.94922C17.3221 3.30078 17.536 3.63281 17.7149 4.09766C17.8511 4.44922 18.0145 4.98047 18.0573 5.95312C18.1039 7.00781 18.1156 7.32422 18.1156 9.99219C18.1156 12.6641 18.1039 12.9805 18.0573 14.0313C18.0145 15.0078 17.8511 15.5352 17.7149 15.8867C17.536 16.3516 17.3182 16.6875 16.972 17.0352C16.6219 17.3867 16.2912 17.6016 15.8283 17.7813C15.4782 17.918 14.9492 18.082 13.9806 18.125C12.9303 18.1719 12.6152 18.1836 9.95833 18.1836C7.29759 18.1836 6.9825 18.1719 5.9361 18.125C4.96361 18.082 4.43846 17.918 4.08836 17.7813C3.62546 17.6016 3.29092 17.3828 2.94471 17.0352C2.59461 16.6836 2.38066 16.3516 2.20173 15.8867C2.06558 15.5352 1.9022 15.0039 1.85941 14.0313C1.81273 12.9766 1.80106 12.6602 1.80106 9.99219C1.80106 7.32031 1.81273 7.00391 1.85941 5.95312C1.9022 4.97656 2.06558 4.44922 2.20173 4.09766C2.38066 3.63281 2.5985 3.29688 2.94471 2.94922C3.29481 2.59766 3.62546 2.38281 4.08836 2.20313C4.43846 2.06641 4.9675 1.90234 5.9361 1.85937C6.9825 1.8125 7.29759 1.80078 9.95833 1.80078ZM9.95833 0C7.2548 0 6.91637 0.0117187 5.85441 0.0585938C4.79634 0.105469 4.06891 0.277344 3.43874 0.523438C2.78133 0.78125 2.22507 1.12109 1.67269 1.67969C1.11642 2.23438 0.777995 2.79297 0.521257 3.44922C0.276188 4.08594 0.105029 4.8125 0.0583496 5.875C0.0116699 6.94531 0 7.28516 0 10C0 12.7148 0.0116699 13.0547 0.0583496 14.1211C0.105029 15.1836 0.276188 15.9141 0.521257 16.5469C0.777995 17.207 1.11642 17.7656 1.67269 18.3203C2.22507 18.875 2.78133 19.2188 3.43485 19.4727C4.06891 19.7188 4.79245 19.8906 5.85052 19.9375C6.91248 19.9844 7.25091 19.9961 9.95444 19.9961C12.658 19.9961 12.9964 19.9844 14.0584 19.9375C15.1164 19.8906 15.8439 19.7188 16.474 19.4727C17.1276 19.2188 17.6838 18.875 18.2362 18.3203C18.7886 17.7656 19.1309 17.207 19.3837 16.5508C19.6288 15.9141 19.8 15.1875 19.8466 14.125C19.8933 13.0586 19.905 12.7188 19.905 10.0039C19.905 7.28906 19.8933 6.94922 19.8466 5.88281C19.8 4.82031 19.6288 4.08984 19.3837 3.45703C19.1387 2.79297 18.8002 2.23438 18.244 1.67969C17.6916 1.125 17.1353 0.78125 16.4818 0.527344C15.8478 0.28125 15.1242 0.109375 14.0661 0.0625C13.0003 0.0117188 12.6619 0 9.95833 0Z" fill="white"/>
<path d="M9.95833 4.86328C7.13421 4.86328 4.84302 7.16406 4.84302 10C4.84302 12.8359 7.13421 15.1367 9.95833 15.1367C12.7825 15.1367 15.0736 12.8359 15.0736 10C15.0736 7.16406 12.7825 4.86328 9.95833 4.86328ZM9.95833 13.332C8.12616 13.332 6.64019 11.8398 6.64019 10C6.64019 8.16016 8.12616 6.66797 9.95833 6.66797C11.7905 6.66797 13.2765 8.16016 13.2765 10C13.2765 11.8398 11.7905 13.332 9.95833 13.332Z" fill="white"/>
<path d="M16.4702 4.66016C16.4702 5.32422 15.9334 5.85938 15.2759 5.85938C14.6147 5.85938 14.0817 5.32031 14.0817 4.66016C14.0817 3.99609 14.6185 3.46094 15.2759 3.46094C15.9334 3.46094 16.4702 4 16.4702 4.66016Z" fill="white"/>
</g>
<defs>
<clipPath id="clip0_1_95">
<rect width="19.9167" height="20" fill="white"/>
</clipPath>
</defs>
</svg>
