<svg width="21" height="16" viewBox="0 0 21 16" fill="none" xmlns="http://www.w3.org/2000/svg">
<path d="M2.73332 2L8.81551 6.61227L8.81754 6.61396C9.49289 7.11128 9.83076 7.3601 10.2008 7.45621C10.5279 7.54117 10.8718 7.54117 11.1989 7.45621C11.5693 7.36001 11.9081 7.11047 12.5847 6.61227C12.5847 6.61227 16.4859 3.60594 18.6667 2M1.73749 11.8002V4.2002C1.73749 3.08009 1.73749 2.51962 1.95457 2.0918C2.14551 1.71547 2.44998 1.40973 2.82474 1.21799C3.25078 1 3.80891 1 4.92435 1H16.476C17.5915 1 18.1484 1 18.5744 1.21799C18.9492 1.40973 19.2547 1.71547 19.4456 2.0918C19.6625 2.5192 19.6625 3.07899 19.6625 4.19691V11.8036C19.6625 12.9215 19.6625 13.4805 19.4456 13.9079C19.2547 14.2842 18.9492 14.5905 18.5744 14.7822C18.1488 15 17.5922 15 16.4789 15H4.92108C3.80782 15 3.25036 15 2.82474 14.7822C2.44998 14.5905 2.14551 14.2842 1.95457 13.9079C1.73749 13.4801 1.73749 12.9203 1.73749 11.8002Z" stroke="white" stroke-width="2" stroke-linecap="round" stroke-linejoin="round"/>
</svg>
