<svg width="12" height="12" viewBox="0 0 12 12" fill="none" xmlns="http://www.w3.org/2000/svg">
<path d="M1.29358 5.76761C1.29358 4.38879 1.92888 3.64055 3.19476 3.53232C3.3077 3.5182 3.42535 3.51349 3.5477 3.51349H6.55946C8.06064 3.51349 8.81358 4.26643 8.81358 5.76761V7.64996C8.81358 7.77232 8.80887 7.88996 8.79476 8.0029C8.68652 9.27349 7.93829 9.90407 6.55946 9.90407H6.37123C6.25358 9.90407 6.14064 9.96054 6.07005 10.0547L5.50535 10.8076C5.25594 11.1417 4.85123 11.1417 4.60181 10.8076L4.0371 10.0547C3.97593 9.97466 3.83946 9.90407 3.73593 9.90407H3.5477C2.04652 9.90407 1.29358 9.53232 1.29358 7.64996" stroke="white" stroke-miterlimit="10" stroke-linecap="round" stroke-linejoin="round"/>
<path d="M10.6959 3.88532C10.6959 2.38414 9.943 1.6312 8.44182 1.6312H5.43006C4.05123 1.6312 3.303 2.26649 3.19476 3.53238C3.3077 3.51826 3.42535 3.51355 3.5477 3.51355H6.55947C8.06064 3.51355 8.81359 4.26649 8.81359 5.76767V7.65002C8.81359 7.77238 8.80888 7.89002 8.79476 8.00296C10.0606 7.89473 10.6959 7.1512 10.6959 5.76767" stroke="white" stroke-miterlimit="10" stroke-linecap="round" stroke-linejoin="round"/>
<path d="M6.70327 6.92527H6.7075" stroke="white" stroke-linecap="round" stroke-linejoin="round"/>
<path d="M5.05617 6.92527H5.06041" stroke="white" stroke-linecap="round" stroke-linejoin="round"/>
<path d="M3.40914 6.92527H3.41338" stroke="white" stroke-linecap="round" stroke-linejoin="round"/>
</svg>
