<svg width="17" height="21" viewBox="0 0 17 21" fill="none" xmlns="http://www.w3.org/2000/svg">
<path d="M10.5002 14.5H15.5002V19.5M6.50018 6.5H1.50018V1.5M15.9177 7.5034C15.357 6.11566 14.4183 4.91304 13.2082 4.03223C11.9981 3.15141 10.5653 2.62752 9.07245 2.52051C7.57955 2.4135 6.08625 2.7274 4.76288 3.42661C3.43951 4.12582 2.33901 5.18254 1.58612 6.47612M1.08221 13.4971C1.6429 14.8848 2.58165 16.0874 3.79176 16.9682C5.00187 17.8491 6.43606 18.3723 7.92896 18.4793C9.42186 18.5863 10.9139 18.2725 12.2373 17.5732C13.5607 16.874 14.6604 15.8175 15.4133 14.5239" stroke="#4E5A80" stroke-width="2" stroke-linecap="round" stroke-linejoin="round"/>
</svg>
