<svg width="50" height="50" viewBox="0 0 50 50" fill="none" xmlns="http://www.w3.org/2000/svg">
<path d="M26.9287 42.9821C31.3165 40.996 41.6666 34.8611 41.6666 21.1772V12.9102C41.6666 10.5812 41.6666 9.415 41.213 8.52458C40.8135 7.74057 40.1744 7.10361 39.3904 6.70414C38.4991 6.25 37.3339 6.25 35.0004 6.25H15.0004C12.6668 6.25 11.4992 6.25 10.6079 6.70414C9.82388 7.10361 9.18692 7.74057 8.78745 8.52458C8.33331 9.41588 8.33331 10.5835 8.33331 12.9171V21.1772C8.33331 34.861 18.6829 40.996 23.0707 42.9821C23.5359 43.1926 23.7696 43.2977 24.2961 43.3881C24.6282 43.4451 25.3739 43.4451 25.706 43.3881C26.2306 43.298 26.4619 43.1933 26.9239 42.9842L26.9287 42.9821Z" stroke="white" stroke-width="4" stroke-linecap="round" stroke-linejoin="round"/>
</svg>
