<svg width="21" height="20" viewBox="0 0 21 20" fill="none" xmlns="http://www.w3.org/2000/svg">
<path fill-rule="evenodd" clip-rule="evenodd" d="M20.75 10C20.75 15.5228 16.2915 20 10.7916 20C5.29181 20 0.833313 15.5228 0.833313 10C0.833313 4.47715 5.29181 0 10.7916 0C16.2915 0 20.75 4.47715 20.75 10ZM11.1485 7.38244C10.1799 7.787 8.24409 8.62433 5.34103 9.89444C4.86962 10.0827 4.62267 10.2668 4.60019 10.4469C4.5622 10.7512 4.94172 10.8711 5.45852 11.0343C5.52882 11.0565 5.60166 11.0795 5.67633 11.1038C6.18479 11.2698 6.86875 11.464 7.22431 11.4717C7.54684 11.4787 7.90682 11.3452 8.30425 11.0711C11.0167 9.2325 12.4168 8.30317 12.5047 8.28314C12.5668 8.26901 12.6527 8.25123 12.7109 8.3032C12.7691 8.35518 12.7634 8.4536 12.7573 8.48C12.7197 8.64095 11.2299 10.0317 10.459 10.7515C10.2186 10.9759 10.0482 11.135 10.0133 11.1714C9.93523 11.2528 9.85567 11.3298 9.7792 11.4038C9.30683 11.8611 8.9526 12.204 9.79881 12.764C10.2055 13.0331 10.5309 13.2556 10.8555 13.4776C11.21 13.7201 11.5637 13.9619 12.0212 14.2631C12.1377 14.3398 12.2491 14.4195 12.3575 14.4971C12.7701 14.7925 13.1408 15.0578 13.5987 15.0155C13.8648 14.9909 14.1397 14.7397 14.2793 13.9903C14.6092 12.2193 15.2577 8.38205 15.4075 6.80081C15.4206 6.66227 15.4041 6.48498 15.3909 6.40715C15.3776 6.32931 15.3499 6.21842 15.2491 6.13633C15.1298 6.03911 14.9456 6.01861 14.8632 6.02007C14.4887 6.0267 13.914 6.22735 11.1485 7.38244Z" fill="white"/>
</svg>
