<svg width="50" height="50" viewBox="0 0 50 50" fill="none" xmlns="http://www.w3.org/2000/svg">
<path d="M35.4167 41.6667C35.4167 38.2149 30.753 35.4167 25 35.4167C19.247 35.4167 14.5833 38.2149 14.5833 41.6667M43.75 35.4174C43.75 32.8545 41.179 30.6519 37.5 29.6875M6.25 35.4174C6.25 32.8545 8.82103 30.6519 12.5 29.6875M37.5 21.3252C38.7786 20.1808 39.5833 18.5177 39.5833 16.6667C39.5833 13.2149 36.7851 10.4167 33.3333 10.4167C31.7326 10.4167 30.2724 11.0184 29.1667 12.0081M12.5 21.3252C11.2214 20.1808 10.4167 18.5177 10.4167 16.6667C10.4167 13.2149 13.2149 10.4167 16.6667 10.4167C18.2674 10.4167 19.7276 11.0184 20.8333 12.0081M25 29.1667C21.5482 29.1667 18.75 26.3684 18.75 22.9167C18.75 19.4649 21.5482 16.6667 25 16.6667C28.4518 16.6667 31.25 19.4649 31.25 22.9167C31.25 26.3684 28.4518 29.1667 25 29.1667Z" stroke="white" stroke-width="5" stroke-linecap="round" stroke-linejoin="round"/>
</svg>
