<svg width="20" height="20" viewBox="0 0 20 20" fill="none" xmlns="http://www.w3.org/2000/svg">
<g clip-path="url(#clip0_1_137)">
<path d="M10 20C15.5228 20 20 15.5228 20 10C20 4.47715 15.5228 0 10 0C4.47715 0 0 4.47715 0 10C0 15.5228 4.47715 20 10 20Z" fill="#EF0027"/>
<path d="M13.7075 6.19552L4.6875 4.53552L9.43437 16.4805L16.0487 8.42177L13.7075 6.19552ZM13.5625 6.92677L14.9425 8.23865L11.1687 8.92177L13.5625 6.92677ZM10.3487 8.7849L6.37125 5.48615L12.8725 6.6824L10.3487 8.7849ZM10.0656 9.36865L9.41687 14.7311L5.92 5.92927L10.0656 9.36802V9.36865ZM10.6656 9.65302L14.845 8.89677L10.0512 14.7361L10.6656 9.65302Z" fill="white"/>
</g>
<defs>
<clipPath id="clip0_1_137">
<rect width="20" height="20" fill="white"/>
</clipPath>
</defs>
</svg>
